<?xml version="1.0" encoding="UTF-8" standalone="no"?>

<svg xmlns="http://www.w3.org/2000/svg" viewBox="0 0 200 150" width="200" height="150">

<g id="circuit" transform="translate(25 25)">
   
    <path
       style="fill:none;stroke:#000000;stroke-width:0.30000001;stroke-miterlimit:4;stroke-dasharray:none;stroke-opacity:1"
       d="M 80.013672,1.0449219 C 71.918887,0.65124373 68.731627,9.1354565 66.987829,15.519457 57.794173,38.638679 48.427609,61.71511 40.65625,85.363281 28.673146,87.222813 15.807749,84.116646 4.4512631,89.266643 c -6.9980468,3.908936 0.642108,8.874314 5.7727269,7.347693 16.305897,-0.291868 32.630479,0.222383 48.950468,0.171253 25.781526,0.106808 51.568082,0.284943 77.347142,0.04545 8.74782,-0.839875 16.13419,-12.472643 9.9748,-19.943135 -3.88289,-5.185967 -16.19701,-6.682622 -16.42891,1.832082 4.41585,6.984283 -5.65085,3.291298 -9.25984,3.885995 -12.52622,-0.511409 -25.053671,-1.009542 -37.571322,-1.705592 -2.507612,-4.01536 -4.154539,-11.033684 2.862837,-7.698624 6.645604,2.60943 15.377735,-1.651293 15.998895,-9.075821 1.08166,-7.078562 -6.373191,-10.857193 -7.449841,-17.355738 -1.850193,-5.764116 1.083146,-13.441362 7.753131,-14.033857 10.01123,-1.874921 20.10571,2.258524 30.14635,0.102059 5.63313,0.615474 13.07741,-7.118963 5.2426,-10.035511 -7.58033,-2.044316 -15.11675,-4.532059 -22.8933,-5.773202 -6.44872,-0.843822 -12.73785,1.2162 -19.107033,1.91328 -5.04067,0.629012 -10.379984,2.362394 -15.360917,1.132468 C 75.816606,19.059912 76.082713,9.4633205 80.30632,15.655514 86.174329,24.142291 95.885604,10.962607 89.745699,4.9607335 87.521107,1.9974326 83.556681,0.9751424 80.013672,1.0449219 Z"
       id="use4026-1"
        />
    <path
       style="fill:none;stroke:#000000;stroke-width:0.30000001;stroke-miterlimit:4;stroke-dasharray:none;stroke-opacity:1"
       d="M 79.607422,5.0722656 C 71.790548,5.6930603 72.513745,15.53573 69.28638,20.728387 c -9.123116,22.10539 -17.52437,44.43259 -25.307864,67.009894 -4.454643,3.868616 -11.443623,1.085114 -16.779297,2.337891 -6.599971,0.719201 -13.596032,-0.713554 -19.7910159,2.292969 42.7977999,0.453225 85.9144729,0.7268 128.5410169,0.46289 6.90189,-0.334317 12.96698,-11.614981 5.04687,-15.142578 -1.8881,-1.437633 -9.00422,-1.962936 -6.30273,2.162109 2.27821,3.202479 -0.0697,8.077659 -4.25913,7.147945 -16.1116,-0.703283 -32.341568,-1.205896 -48.297511,-2.132319 -4.040719,-2.096956 -4.41055,-7.664273 -5.560547,-11.607422 -0.114794,-5.984725 7.429408,-5.473072 11.261719,-3.785157 5.989115,2.713415 13.631669,-4.965534 8.966797,-10.542968 -5.09308,-6.261049 -9.121422,-14.992472 -5.09375,-22.863282 3.466393,-8.323639 13.963622,-8.579963 21.568362,-7.4375 7.72531,0.358051 17.30509,2.256546 23.88281,-1.738281 -8.75503,-2.17834 -17.45375,-6.062438 -26.53516,-5.943359 -9.86013,0.775237 -19.642041,3.661048 -29.521481,3.65039 -5.836807,-1.136344 -12.016054,-9.82425 -6.140625,-14.482421 3.728731,-2.8798179 7.623123,0.99075 9.310547,4.144531 4.482913,0.333183 4.125867,-7.5898605 0.03125,-8.5175784 -1.477247,-0.6089678 -3.114885,-0.7679774 -4.699219,-0.671875 z"
       id="use4026-1-3"
        />
    <rect
       style="fill:#6c5d53;stroke-width:50.29999924;stroke-miterlimit:4;stroke-dasharray:none"
       id="rect49220"
       width="10.360885"
       height="0.81490105"
       x="65.424538"
       y="15.923007"
       transform="matrix(0.9247802,0.38050176,-0.38050176,0.9247802,0,0)" />
  </g>
</svg>
